<svg width="32" height="33" viewBox="0 0 32 33" fill="none" xmlns="http://www.w3.org/2000/svg">
<path d="M27 0.220703H5C2.23858 0.220703 0 2.45928 0 5.2207V27.2207C0 29.9821 2.23858 32.2207 5 32.2207H27C29.7614 32.2207 32 29.9821 32 27.2207V5.2207C32 2.45928 29.7614 0.220703 27 0.220703Z" fill="#1877F2"/>
<path d="M24 16.2207C24 11.8207 20.4 8.2207 16 8.2207C11.6 8.2207 8 11.8207 8 16.2207C8 20.2207 10.9 23.5207 14.7 24.1207V18.5207H12.7V16.2207H14.7V14.4207C14.7 12.4207 15.9 11.3207 17.7 11.3207C18.6 11.3207 19.5 11.5207 19.5 11.5207V13.5207H18.5C17.5 13.5207 17.2 14.1207 17.2 14.7207V16.2207H19.4L19 18.5207H17.1V24.2207C21.1 23.6207 24 20.2207 24 16.2207Z" fill="white"/>
</svg>
