<svg width="32" height="33" viewBox="0 0 32 33" fill="none" xmlns="http://www.w3.org/2000/svg">
<path d="M0 5.2207C0 2.45928 2.23858 0.220703 5 0.220703H27C29.7614 0.220703 32 2.45928 32 5.2207V27.2207C32 29.9821 29.7614 32.2207 27 32.2207H5C2.23858 32.2207 0 29.9821 0 27.2207V5.2207Z" fill="black"/>
<path d="M14.4984 14.521V13.8981C14.285 13.8696 14.068 13.8518 13.844 13.8518C11.173 13.8483 9 16.0231 9 18.6999C9 20.3408 9.818 21.7931 11.0699 22.6723C10.2626 21.8074 9.76821 20.6434 9.76821 19.3691C9.76821 16.7315 11.8808 14.5815 14.4984 14.521Z" fill="#25F4EE"/>
<path d="M14.6157 21.5831C15.8072 21.5831 16.7816 20.6327 16.8243 19.451L16.8279 8.88989H18.7555C18.7164 8.67276 18.695 8.44851 18.695 8.2207H16.0632L16.0597 18.7818C16.017 19.9635 15.0425 20.9139 13.8511 20.9139C13.4812 20.9139 13.1327 20.8214 12.8232 20.6576C13.2216 21.2165 13.876 21.5831 14.6157 21.5831Z" fill="#25F4EE"/>
<path d="M22.3585 12.4742V11.887C21.6223 11.887 20.9394 11.6698 20.3633 11.2925C20.8754 11.8798 21.5689 12.307 22.3585 12.4742Z" fill="#25F4EE"/>
<path d="M20.3627 11.2925C19.8008 10.6483 19.4629 9.80824 19.4629 8.88989H18.7588C18.9401 9.89368 19.5377 10.7551 20.3627 11.2925Z" fill="#FE2C55"/>
<path d="M13.8479 16.4822C12.628 16.4822 11.6357 17.4753 11.6357 18.6962C11.6357 19.547 12.1194 20.2873 12.8236 20.6575C12.5604 20.2944 12.4039 19.8495 12.4039 19.3654C12.4039 18.1445 13.3962 17.1514 14.6161 17.1514C14.8437 17.1514 15.0642 17.1905 15.2705 17.2546V14.5637C15.0571 14.5352 14.8402 14.5173 14.6161 14.5173C14.577 14.5173 14.5414 14.5209 14.5023 14.5209V16.5854C14.2925 16.5213 14.0755 16.4822 13.8479 16.4822Z" fill="#FE2C55"/>
<path d="M22.3587 12.4744V14.5211C20.993 14.5211 19.7269 14.0833 18.6955 13.3429V18.7C18.6955 21.3731 16.5225 23.5516 13.8479 23.5516C12.8166 23.5516 11.8563 23.2241 11.0703 22.6724C11.9559 23.6227 13.2184 24.2208 14.6162 24.2208C17.2871 24.2208 19.4637 22.0459 19.4637 19.3691V14.0121C20.4951 14.7525 21.7612 15.1903 23.1269 15.1903V12.5563C22.8601 12.5563 22.6041 12.5278 22.3587 12.4744Z" fill="#FE2C55"/>
<path d="M18.6954 18.6999V13.3428C19.7268 14.0832 20.9929 14.521 22.3586 14.521V12.4743C21.5691 12.307 20.8755 11.8799 20.3634 11.2925C19.5383 10.7551 18.9444 9.89368 18.7558 8.88989H16.8282L16.8247 19.4509C16.782 20.6327 15.8075 21.5831 14.6161 21.5831C13.8763 21.5831 13.2255 21.2165 12.82 20.6612C12.1158 20.2874 11.6322 19.5506 11.6322 18.6999C11.6322 17.479 12.6244 16.4859 13.8443 16.4859C14.0719 16.4859 14.2924 16.525 14.4987 16.5891V14.5246C11.8811 14.5815 9.76855 16.7315 9.76855 19.3691C9.76855 20.6434 10.2629 21.8038 11.0702 22.6723C11.8562 23.224 12.8165 23.5515 13.8479 23.5515C16.5188 23.5515 18.6954 21.3731 18.6954 18.6999Z" fill="white"/>
</svg>
