<svg width="32" height="33" viewBox="0 0 32 33" fill="none" xmlns="http://www.w3.org/2000/svg">
<path d="M27 0.220703H5C2.23858 0.220703 0 2.45928 0 5.2207V27.2207C0 29.9821 2.23858 32.2207 5 32.2207H27C29.7614 32.2207 32 29.9821 32 27.2207V5.2207C32 2.45928 29.7614 0.220703 27 0.220703Z" fill="#FF0000"/>
<path d="M23.6 12.3206C23.4 11.6206 22.9 11.1206 22.2 10.9206C21 10.6206 15.9 10.6206 15.9 10.6206C15.9 10.6206 10.9 10.6206 9.60001 10.9206C8.90001 11.1206 8.4 11.6206 8.2 12.3206C8 13.6206 8 16.2206 8 16.2206C8 16.2206 8 18.8206 8.3 20.1206C8.5 20.8206 9 21.3206 9.7 21.5206C10.9 21.8206 16 21.8206 16 21.8206C16 21.8206 21 21.8206 22.3 21.5206C23 21.3206 23.5 20.8206 23.7 20.1206C24 18.8206 24 16.2206 24 16.2206C24 16.2206 24 13.6206 23.6 12.3206ZM14.4 18.6206V13.8206L18.6 16.2206L14.4 18.6206Z" fill="white"/>
</svg>
